# xmcd
#
# Track frame offsets:
#	150
#	16360
#	38164
#	56357
#	76082
#	94904
#	118181
#	137471
#	153131
#	167443
#
# Disc length: 2355 seconds
#
# Revision: 1
# Processed by: cddbd v1.5.2PL0 Copyright (c) Steve Scherf et al.
# Submitted via: audiograbber 1.83.01
#
DISCID=6b09310a
DTITLE=Rocky Athas - Let My Guitar Do The Talking... with my friends
DYEAR=2014
DGENRE=Blues
TTITLE0=Think About It (feat. John Mayall)
TTITLE1=To My Friend
TTITLE2=D Boogie
TTITLE3=On The Move
TTITLE4=Another Day, Another Time
TTITLE5=Run Children Run
TTITLE6=Rocky and Joe's Hail Damage Shuffle
TTITLE7=Rock Funk
TTITLE8=That's What I Know
TTITLE9=Rachel
EXTD=
EXTT0=
EXTT1=
EXTT2=
EXTT3=
EXTT4=
EXTT5=
EXTT6=
EXTT7=
EXTT8=
EXTT9=
PLAYORDER=
